<svg xmlns="http://www.w3.org/2000/svg" viewBox="0 0 34 34" fill="none">
  <style>
    #light-icon {
      display: inline;
    }
    #dark-icon {
      display: none;
    }

    @media (prefers-color-scheme: dark) {
      #light-icon {
        display: none;
      }
      #dark-icon {
        display: inline;
      }
    }
  </style>

  <g id="light-icon">
    <path d="M0 16.8792C0 14.7847 1.697 13.0856 3.79157 13.0856C5.88615 13.0856 7.58554 11.3883 7.58554 9.2937C7.58554 7.19947 9.28458 5.50008 11.3792 5.50008C13.4737 5.50008 15.1707 7.19947 15.1707 9.2937C15.1707 11.3883 13.4737 13.0856 11.3792 13.0856C9.28458 13.0856 7.58554 14.7847 7.58554 16.8792C7.58554 18.9738 9.28458 20.6708 11.3792 20.6708C13.4737 20.6708 15.1707 22.3702 15.1707 24.4648C15.1707 26.559 13.4737 28.2563 11.3792 28.2563C9.28458 28.2563 7.58554 26.559 7.58554 24.4648C7.58554 22.3702 5.88615 20.6708 3.79157 20.6708C1.697 20.6708 0 18.9738 0 16.8792Z" fill="#000000"/>
    <path d="M34.0001 16.8772C34.0001 18.9718 32.3031 20.6708 30.2085 20.6708C28.1139 20.6708 26.4149 22.3682 26.4149 24.4627C26.4149 26.557 24.7155 28.2563 22.6209 28.2563C20.5263 28.2563 18.8293 26.557 18.8293 24.4627C18.8293 22.3682 20.5263 20.6708 22.6209 20.6708C24.7155 20.6708 26.4149 18.9718 26.4149 16.8772C26.4149 14.7826 24.7155 13.0856 22.6209 13.0856C20.5263 13.0856 18.8293 11.3862 18.8293 9.29165C18.8293 7.19742 20.5263 5.50008 22.6209 5.50008C24.7155 5.50008 26.4149 7.19742 26.4149 9.29165C26.4149 11.3862 28.1139 13.0856 30.2085 13.0856C32.3031 13.0856 34.0001 14.7826 34.0001 16.8772Z" fill="#000000"/>
    <path d="M17.036 20.5063C19.0716 20.5063 20.7218 18.8561 20.7218 16.8205C20.7218 14.7845 19.0716 13.1343 17.036 13.1343C15 13.1343 13.3501 14.7845 13.3501 16.8205C13.3501 18.8561 15 20.5063 17.036 20.5063Z" fill="#000000"/>
  </g>

  <g id="dark-icon">
    <path d="M0 16.8792C0 14.7847 1.697 13.0856 3.79157 13.0856C5.88615 13.0856 7.58554 11.3883 7.58554 9.2937C7.58554 7.19947 9.28458 5.50008 11.3792 5.50008C13.4737 5.50008 15.1707 7.19947 15.1707 9.2937C15.1707 11.3883 13.4737 13.0856 11.3792 13.0856C9.28458 13.0856 7.58554 14.7847 7.58554 16.8792C7.58554 18.9738 9.28458 20.6708 11.3792 20.6708C13.4737 20.6708 15.1707 22.3702 15.1707 24.4648C15.1707 26.559 13.4737 28.2563 11.3792 28.2563C9.28458 28.2563 7.58554 26.559 7.58554 24.4648C7.58554 22.3702 5.88615 20.6708 3.79157 20.6708C1.697 20.6708 0 18.9738 0 16.8792Z" fill="#ffffff"/>
    <path d="M34.0001 16.8772C34.0001 18.9718 32.3031 20.6708 30.2085 20.6708C28.1139 20.6708 26.4149 22.3682 26.4149 24.4627C26.4149 26.557 24.7155 28.2563 22.6209 28.2563C20.5263 28.2563 18.8293 26.557 18.8293 24.4627C18.8293 22.3682 20.5263 20.6708 22.6209 20.6708C24.7155 20.6708 26.4149 18.9718 26.4149 16.8772C26.4149 14.7826 24.7155 13.0856 22.6209 13.0856C20.5263 13.0856 18.8293 11.3862 18.8293 9.29165C18.8293 7.19742 20.5263 5.50008 22.6209 5.50008C24.7155 5.50008 26.4149 7.19742 26.4149 9.29165C26.4149 11.3862 28.1139 13.0856 30.2085 13.0856C32.3031 13.0856 34.0001 14.7826 34.0001 16.8772Z" fill="#ffffff"/>
    <path d="M17.036 20.5063C19.0716 20.5063 20.7218 18.8561 20.7218 16.8205C20.7218 14.7845 19.0716 13.1343 17.036 13.1343C15 13.1343 13.3501 14.7845 13.3501 16.8205C13.3501 18.8561 15 20.5063 17.036 20.5063Z" fill="#ffffff"/>
  </g>
</svg>
